# xmcd
#
# Track frame offsets:
#	150
#	11438
#	49522
#	63643
#	88034
#	126150
#	151511
#	167040
#	173666
#	182592
#	214718
#	233766
#	256889
#
# Disc length: 4115 seconds
#
# Revision: 1
# Processed by: cddbd v1.5.1PL2 Copyright (c) Steve Scherf et al.
# Submitted via: audiograbber 1.83.01
#
DISCID=9b10110d
DTITLE=Bugs Henderson and The Shuffle Kings - Electric Snow "The Best Of" Cd2
DYEAR=2006
DGENRE=Blues
TTITLE0=Raw-Hide
TTITLE1=Blues In Reverse
TTITLE2=Big D Shuffle
TTITLE3=Airplay
TTITLE4=Honky Tonk
TTITLE5=Jitterbugs Part 2
TTITLE6=Rebel Rouser
TTITLE7=Autumn Lullaby
TTITLE8=Blackhawk Walk
TTITLE9=Texas Ballbuster
TTITLE10=Hide Away
TTITLE11=Pleasure Tent Of The Porno Duck
TTITLE12=You Can't Sit Down
EXTD=
EXTT0=
EXTT1=
EXTT2=
EXTT3=
EXTT4=
EXTT5=
EXTT6=
EXTT7=
EXTT8=
EXTT9=
EXTT10=
EXTT11=
EXTT12=
PLAYORDER=
